<?xml version="1.0" encoding="UTF-8"?>
<!-- Generator: visioncortex VTracer -->
<svg id="svg" version="1.1" xmlns="http://www.w3.org/2000/svg" style="display: block;" viewBox="0 0 256 256"><path d="M0 0 C1.20251907 -0.00832352 2.40503815 -0.01664703 3.64399719 -0.02522278 C6.93396613 -0.04515833 10.22378824 -0.0559594 13.51380944 -0.06104922 C15.57737004 -0.06470501 17.64090679 -0.07095178 19.70445824 -0.07805061 C26.92765736 -0.10253623 34.15078495 -0.11559207 41.37402344 -0.11914062 C48.06549032 -0.12276038 54.75649417 -0.15254493 61.44782001 -0.19454521 C67.22142288 -0.22949029 72.99487438 -0.24469332 78.76858205 -0.24538666 C82.20375226 -0.24617225 85.63845188 -0.25457053 89.07351112 -0.28338432 C114.43059035 -0.46242276 134.43886997 2.98400444 154.0222168 20.30639648 C154.63452148 20.82459961 155.24682617 21.34280273 155.87768555 21.87670898 C168.43336787 33.31186131 176.8062536 51.69002389 179.0222168 68.30639648 C179.1776609 71.71443279 179.18957202 75.11980421 179.19921875 78.53100586 C179.20578995 79.54636917 179.21236115 80.56173248 179.21913147 81.60786438 C179.23878329 84.95529257 179.25050557 88.3026762 179.26049805 91.65014648 C179.26457357 92.79557419 179.2686491 93.94100189 179.27284813 95.12113953 C179.29366871 101.1775189 179.30799087 107.23387584 179.31738281 113.2902832 C179.32847197 119.5448754 179.36291248 125.79911428 179.40255451 132.05358124 C179.42867871 136.86627876 179.43707066 141.67889125 179.44066429 146.49165344 C179.44553675 148.79773866 179.45716939 151.10381992 179.47570229 153.40983582 C179.500016 156.63410728 179.49914322 159.85745228 179.4921875 163.08178711 C179.51140259 164.50803154 179.51140259 164.50803154 179.53100586 165.96308899 C179.47714846 172.81227371 178.10946263 176.21915065 173.2097168 181.11889648 C170.1223211 182.79491129 167.52134173 183.06167689 164.0222168 183.30639648 C161.04956055 182.32983398 161.04956055 182.32983398 157.9597168 180.68139648 C157.38467911 180.3901741 156.80964142 180.09895172 156.21717834 179.79890442 C152.51174644 177.86330054 149.34045726 175.81125607 146.17260742 173.07714844 C127.80656939 158.3996631 104.14401341 161.68061429 81.95684814 162.06677246 C75.23494008 162.17067497 68.51235598 162.18974596 61.78977108 162.21564007 C56.55881293 162.2365084 51.32941643 162.27090021 46.09901428 162.352005 C22.40516106 162.66655171 2.18335248 159.41585633 -15.7355957 142.50170898 C-16.47551758 141.77725586 -17.21543945 141.05280273 -17.9777832 140.30639648 C-18.53208008 139.78819336 -19.08637695 139.26999023 -19.6574707 138.73608398 C-23.37337964 134.89965908 -25.7353554 130.32667423 -28.1652832 125.61889648 C-28.49866699 124.98395264 -28.83205078 124.34900879 -29.17553711 123.69482422 C-35.14798405 111.61316822 -35.41643518 99.57327967 -35.34106445 86.40795898 C-35.34054467 84.60102336 -35.34106693 82.79408717 -35.34257507 80.9871521 C-35.34248592 77.2235252 -35.33216856 73.46011508 -35.31396484 69.6965332 C-35.29118133 64.88154943 -35.29075748 60.06687883 -35.29748249 55.25185585 C-35.30082703 51.53031648 -35.29418483 47.80884812 -35.28435326 44.08732224 C-35.28051672 42.31157172 -35.2793466 40.5358133 -35.2809391 38.76005936 C-35.28131116 36.28137429 -35.26865357 33.80308786 -35.25244141 31.32446289 C-35.25491882 30.59812653 -35.25739624 29.87179016 -35.25994873 29.1234436 C-35.17388013 20.85204881 -32.2408301 14.55277274 -26.9777832 8.30639648 C-18.53187071 1.19007307 -10.76042381 0.00632983 0 0 Z " transform="translate(54.977783203125,36.693603515625)" style="fill: #FDA801;"/><path d="M0 0 C1.16364578 -0.00860046 2.32729156 -0.01720093 3.52619934 -0.02606201 C5.45090309 -0.03245193 5.45090309 -0.03245193 7.41448975 -0.03897095 C8.77449249 -0.04687145 10.13449314 -0.05514037 11.49449158 -0.06375122 C15.96747839 -0.08997969 20.4404746 -0.10528072 24.91351318 -0.11953735 C26.45311235 -0.12489689 27.99271145 -0.1302744 29.53231049 -0.13566971 C35.93697422 -0.15730059 42.34163542 -0.17603697 48.74632645 -0.1872921 C57.92553384 -0.20352876 67.10431775 -0.2366968 76.28336549 -0.29369295 C82.73694943 -0.33239922 89.19042015 -0.35192564 95.64411712 -0.35721266 C99.49873886 -0.36086555 103.35290901 -0.37287896 107.20740509 -0.4053154 C110.83548823 -0.43540834 114.46284687 -0.44170413 118.09102821 -0.42993164 C120.05324207 -0.42960598 122.01541129 -0.45406428 123.97746277 -0.47930908 C133.60045655 -0.41117819 133.60045655 -0.41117819 137.29064941 2.4755249 C140.11557573 5.86504256 140.6774377 7.74923897 140.52288818 12.15390015 C138.46486753 16.19371846 136.75009847 18.53028305 132.52288818 20.15390015 C129.88946629 20.41396236 129.88946629 20.41396236 126.83650208 20.42805481 C125.67707596 20.43802994 124.51764984 20.44800507 123.3230896 20.45828247 C121.42084122 20.45927948 121.42084122 20.45927948 119.48016357 20.46029663 C118.12809288 20.46791997 116.77602653 20.47634777 115.42396545 20.48551941 C111.75455375 20.50745129 108.08522536 20.51626125 104.41575551 20.52134585 C102.12281193 20.52499029 99.82989015 20.53123073 97.53695488 20.53834724 C89.53656938 20.562835 81.53624869 20.57589265 73.53582764 20.57943726 C66.079608 20.58307437 58.62379952 20.61298366 51.1677056 20.65484184 C44.76418842 20.68953009 38.36080764 20.70498542 31.95719713 20.70568329 C28.1333976 20.70647647 24.31001718 20.71523357 20.48631477 20.74368095 C16.89018869 20.76983786 13.29482997 20.77208109 9.69865227 20.75602531 C7.751791 20.7533436 5.80494484 20.77540962 3.85821533 20.79821777 C-5.65755392 20.71827896 -5.65755392 20.71827896 -8.73786926 17.74143982 C-11.52299662 13.59789612 -11.90509404 11.20409036 -11.47711182 6.15390015 C-8.08490834 0.95252148 -6.02477519 0.03306278 0 0 Z " transform="translate(63.47711181640625,109.84609985351563)" style="fill: #871C15;"/><path d="M0 0 C1.16509094 -0.00571014 2.33018188 -0.01142029 3.53057861 -0.01730347 C4.81528549 -0.01842133 6.09999237 -0.01953918 7.42362976 -0.02069092 C8.78525426 -0.02531838 10.14687746 -0.03034294 11.50849915 -0.03573608 C15.21314324 -0.04886997 18.9177692 -0.05530708 22.62243295 -0.05974674 C24.93646442 -0.06267617 27.25049091 -0.06678076 29.56451988 -0.07125092 C36.80309314 -0.0849291 44.04165506 -0.09459391 51.28024036 -0.09845281 C59.63872643 -0.10293304 67.99704893 -0.12047786 76.35548526 -0.1494534 C82.81415242 -0.17106653 89.27277355 -0.1811569 95.73147649 -0.18249393 C99.58985024 -0.18354232 103.44807031 -0.1894572 107.30640602 -0.20731354 C110.93682136 -0.22378771 114.56696738 -0.22595306 118.19740677 -0.21717453 C120.16334234 -0.21603651 122.12926895 -0.22975938 124.09515381 -0.243927 C125.26870422 -0.23835785 126.44225464 -0.2327887 127.65136719 -0.22705078 C128.66919438 -0.22851734 129.68702158 -0.2299839 130.73569202 -0.2314949 C134.01651074 0.20737281 135.86342026 1.18531034 138.51615906 3.14044189 C140.87236343 6.67474846 141.00607519 7.97615476 140.51615906 12.14044189 C137.35826432 17.71938926 137.35826432 17.71938926 134.51615906 19.14044189 C132.66518003 19.24675338 130.81037877 19.28872056 128.95639038 19.30107117 C127.77447113 19.31111679 126.59255188 19.32116241 125.37481689 19.33151245 C124.07140854 19.33734344 122.76800018 19.34317444 121.4250946 19.34918213 C120.04376486 19.35871894 118.66243753 19.36861002 117.28111267 19.37882996 C112.73839662 19.41023288 108.19566214 19.43048262 103.65287781 19.44903564 C102.88031151 19.45233297 102.10774521 19.45563029 101.31176782 19.45902753 C94.02739725 19.4898072 86.74302259 19.51651797 79.45860577 19.53344631 C70.13718576 19.55536161 60.81634115 19.59734956 51.49515122 19.66688389 C44.94307315 19.71410388 38.39115045 19.73837708 31.83890754 19.7456432 C27.92442856 19.75060233 24.01059791 19.76570636 20.09630394 19.8053875 C16.41315094 19.84223336 12.73101703 19.85067135 9.04771423 19.83738136 C7.0530692 19.83746107 5.05849495 19.86732414 3.06408691 19.89807129 C-5.43298513 19.8288804 -5.43298513 19.8288804 -8.40299034 17.88316536 C-10.76790335 15.21929007 -11.49331697 13.08042706 -12.04634094 9.57794189 C-11.39813683 5.61669453 -10.29584721 3.95244816 -7.48384094 1.14044189 C-4.86554304 -0.16870706 -2.93329491 0.00858227 0 0 Z " transform="translate(63.48384094238281,74.85955810546875)" style="fill: #851A16;"/><path d="M0 0 C1.43679611 -0.00744736 1.43679611 -0.00744736 2.90261841 -0.01504517 C6.08181468 -0.02968933 9.26096104 -0.03647276 12.44018555 -0.04199219 C14.64495343 -0.04774205 16.84972129 -0.05349981 19.05448914 -0.05926514 C23.68232456 -0.06978173 28.31014258 -0.07562 32.93798828 -0.07910156 C38.86988616 -0.08458579 44.80155445 -0.10860965 50.73338032 -0.13707352 C55.28955254 -0.15569209 59.8456694 -0.1609051 64.40187645 -0.16243744 C66.58875979 -0.16546657 68.77564209 -0.1735038 70.96248817 -0.18662262 C74.02204497 -0.20366554 77.08104008 -0.20180694 80.140625 -0.1953125 C81.04522964 -0.20452728 81.94983429 -0.21374207 82.8818512 -0.22323608 C87.65411615 -0.19148223 90.92463039 0.00124497 94.7644043 3.16113281 C97.21046135 6.83021839 97.60386832 9.8973205 96.7644043 14.16113281 C94.58866014 16.8521848 92.85374573 18.61646209 89.7644043 20.16113281 C86.67889993 20.28088699 83.6153156 20.3395659 80.52880859 20.35400391 C79.57094452 20.3621814 78.61308044 20.37035889 77.62619019 20.37878418 C74.44700756 20.40365691 71.26786961 20.42015838 68.08862305 20.43457031 C67.00447428 20.43989399 65.92032551 20.44521767 64.80332375 20.45070267 C59.06582979 20.47744148 53.32835765 20.4968147 47.59082031 20.51123047 C41.65876812 20.52788669 35.72727058 20.57267099 29.79542828 20.62360191 C25.23925625 20.65722416 20.68321673 20.66880239 16.12693214 20.67445755 C13.94001841 20.68118312 11.75311379 20.69643884 9.56632042 20.72034836 C6.50647879 20.75189642 3.44814454 20.75205204 0.38818359 20.74462891 C-0.51642105 20.76103424 -1.4210257 20.77743958 -2.3530426 20.79434204 C-6.8442074 20.74970599 -8.64532838 20.62951633 -12.27458191 17.74966431 C-15.36374682 13.67197719 -15.67191014 11.30964318 -15.2355957 6.16113281 C-10.98489054 -0.3566151 -7.30817628 0.00897081 0 0 Z " transform="translate(67.235595703125,144.8388671875)" style="fill: #861C16;"/></svg>